<?xml version="1.0" ?><!DOCTYPE svg  PUBLIC '-//W3C//DTD SVG 1.1//EN'  'http://www.w3.org/Graphics/SVG/1.1/DTD/svg11.dtd'><svg enable-background="new 0 0 128 128" height="128px" id="Layer_1" version="1.1" viewBox="0 0 128 128" width="128px" xml:space="preserve" xmlns="http://www.w3.org/2000/svg" xmlns:xlink="http://www.w3.org/1999/xlink"><circle cx="64" cy="64" fill="#FFFFFF" r="64"/><g><path d="M10.785,99.556h106.43c2.938-4.387,5.339-9.16,7.128-14.223H3.656C5.447,90.396,7.847,95.169,10.785,99.556   z" fill="#BE0019"/><path d="M64.001,128c15.236,0,29.222-5.333,40.21-14.223h-80.42C34.78,122.667,48.765,128,64.001,128z" fill="#BE0019"/><path d="M104.213,14.222C94.956,6.736,83.575,1.78,71.111,0.403v13.819H104.213z" fill="#BE0019"/><path d="M71.111,42.667h53.233c-1.791-5.062-4.192-9.835-7.13-14.222H71.111V42.667z" fill="#BE0019"/><path d="M71.111,71.111h56.486C127.856,68.775,128,66.405,128,64s-0.144-4.775-0.402-7.111H71.111V71.111z" fill="#BE0019"/><path d="M0,64c0,2.405,0.145,4.775,0.403,7.111h70.708V56.889V42.667V28.444V14.222V0.403   C68.775,0.144,66.405,0,64.001,0C28.654,0,0,28.653,0,64z M17.515,66.37l-3.466-2.413l-3.468,2.413l1.223-4.042l-3.363-2.553   l4.221-0.084l1.387-3.987l1.388,3.987l4.219,0.084l-3.364,2.553L17.515,66.37z M16.292,42.567l1.224,4.042l-3.466-2.413   l-3.468,2.413l1.223-4.042l-3.363-2.553l4.221-0.085l1.387-3.986l1.388,3.986l4.219,0.085L16.292,42.567z M29.191,56.488   l-3.463-2.413l-3.468,2.413l1.224-4.042l-3.365-2.553l4.222-0.084l1.387-3.987l1.384,3.987l4.222,0.084l-3.365,2.553L29.191,56.488   z M27.97,32.685l1.221,4.042l-3.463-2.414l-3.468,2.414l1.224-4.042l-3.365-2.553l4.222-0.085l1.387-3.986l1.384,3.986l4.222,0.085   L27.97,32.685z M40.873,66.37l-3.469-2.413l-3.465,2.413l1.224-4.042l-3.363-2.553l4.219-0.084l1.386-3.987l1.39,3.987l4.219,0.084   l-3.363,2.553L40.873,66.37z M39.649,42.567l1.223,4.042l-3.469-2.413l-3.465,2.413l1.224-4.042l-3.363-2.553l4.219-0.085   l1.386-3.986l1.39,3.986l4.219,0.085L39.649,42.567z M39.649,22.803l1.223,4.042l-3.469-2.413l-3.465,2.413l1.224-4.042   l-3.363-2.553l4.219-0.085l1.386-3.986l1.39,3.986l4.219,0.085L39.649,22.803z M52.549,56.488l-3.465-2.413l-3.465,2.413   l1.223-4.042l-3.367-2.553l4.222-0.084l1.387-3.987l1.386,3.987l4.222,0.084l-3.367,2.553L52.549,56.488z M51.325,32.685   l1.224,4.042l-3.465-2.414l-3.465,2.414l1.223-4.042l-3.367-2.553l4.222-0.085l1.387-3.986l1.386,3.986l4.222,0.085L51.325,32.685z    M51.325,12.921l1.224,4.042l-3.465-2.413l-3.465,2.413l1.223-4.042l-3.367-2.551l4.222-0.088l1.387-3.986l1.386,3.986l4.222,0.088   L51.325,12.921z M64.228,66.014l-3.466-2.412l-3.465,2.412l1.223-4.041l-3.363-2.553l4.219-0.084l1.387-3.987l1.386,3.987   l4.222,0.084l-3.363,2.553L64.228,66.014z M63.007,42.212l1.221,4.042l-3.466-2.413l-3.465,2.413l1.223-4.042l-3.363-2.553   l4.219-0.086l1.387-3.986l1.386,3.986l4.222,0.086L63.007,42.212z M63.007,22.447l1.221,4.042l-3.466-2.412l-3.465,2.412   l1.223-4.042l-3.363-2.55l4.219-0.088l1.387-3.987l1.386,3.987l4.222,0.088L63.007,22.447z" fill="#1E3796"/></g></svg>